<mxfile host="app.diagrams.net" modified="2023-07-30T18:44:37.047Z" agent="Mozilla/5.0 (Windows NT 10.0; Win64; x64) AppleWebKit/537.36 (KHTML, like Gecko) Chrome/115.0.0.0 Safari/537.36" etag="hJZW8-6CQU2le0qsyrfI" version="21.6.6" type="device">
  <diagram id="Gi5_93j05Tq5kSE1P_lF" name="Page-2">
    <mxGraphModel dx="1687" dy="920" grid="1" gridSize="10" guides="1" tooltips="1" connect="1" arrows="1" fold="1" page="1" pageScale="1" pageWidth="850" pageHeight="1100" math="0" shadow="0">
      <root>
        <mxCell id="0" />
        <mxCell id="1" parent="0" />
        <mxCell id="ZZxpTI72Ch4nWyN-9ozh-1" value="Backend" style="shape=umlLifeline;perimeter=lifelinePerimeter;whiteSpace=wrap;html=1;container=0;collapsible=0;recursiveResize=0;outlineConnect=0;rounded=1;shadow=0;comic=0;labelBackgroundColor=none;strokeWidth=1;fontFamily=Verdana;fontSize=12;align=center;" parent="1" vertex="1">
          <mxGeometry x="620" y="90" width="100" height="710" as="geometry" />
        </mxCell>
        <mxCell id="ZZxpTI72Ch4nWyN-9ozh-6" value="Base de datos" style="shape=umlLifeline;perimeter=lifelinePerimeter;whiteSpace=wrap;html=1;container=0;collapsible=0;recursiveResize=0;outlineConnect=0;rounded=1;shadow=0;comic=0;labelBackgroundColor=none;strokeWidth=1;fontFamily=Verdana;fontSize=12;align=center;" parent="1" vertex="1">
          <mxGeometry x="820" y="90" width="100" height="710" as="geometry" />
        </mxCell>
        <mxCell id="ZZxpTI72Ch4nWyN-9ozh-11" value="Administrador" style="shape=umlLifeline;perimeter=lifelinePerimeter;whiteSpace=wrap;html=1;container=0;collapsible=0;recursiveResize=0;outlineConnect=0;rounded=1;shadow=0;comic=0;labelBackgroundColor=none;strokeWidth=1;fontFamily=Verdana;fontSize=12;align=center;" parent="1" vertex="1">
          <mxGeometry x="230" y="90" width="120" height="710" as="geometry" />
        </mxCell>
        <mxCell id="ZZxpTI72Ch4nWyN-9ozh-21" value="Frontend" style="shape=umlLifeline;perimeter=lifelinePerimeter;whiteSpace=wrap;html=1;container=0;collapsible=0;recursiveResize=0;outlineConnect=0;rounded=1;shadow=0;comic=0;labelBackgroundColor=none;strokeWidth=1;fontFamily=Verdana;fontSize=12;align=center;" parent="1" vertex="1">
          <mxGeometry x="435.13" y="90" width="100" height="710" as="geometry" />
        </mxCell>
        <mxCell id="ZZxpTI72Ch4nWyN-9ozh-12" value="" style="html=1;points=[];perimeter=orthogonalPerimeter;rounded=0;shadow=0;comic=0;labelBackgroundColor=none;strokeWidth=1;fontFamily=Verdana;fontSize=12;align=center;" parent="1" vertex="1">
          <mxGeometry x="285" y="180" width="10" height="600" as="geometry" />
        </mxCell>
        <mxCell id="mXo3GQkAn6UmXGM8vVlt-14" style="edgeStyle=orthogonalEdgeStyle;rounded=0;orthogonalLoop=1;jettySize=auto;html=1;" parent="1" source="UpYW0VXzlztQtEfswIcR-47" target="UpYW0VXzlztQtEfswIcR-48" edge="1">
          <mxGeometry relative="1" as="geometry">
            <Array as="points">
              <mxPoint x="770" y="270" />
              <mxPoint x="770" y="270" />
            </Array>
          </mxGeometry>
        </mxCell>
        <mxCell id="mXo3GQkAn6UmXGM8vVlt-15" value="Consultar entrenadores" style="edgeLabel;html=1;align=center;verticalAlign=middle;resizable=0;points=[];" parent="mXo3GQkAn6UmXGM8vVlt-14" vertex="1" connectable="0">
          <mxGeometry x="-0.0632" relative="1" as="geometry">
            <mxPoint x="6" y="-11" as="offset" />
          </mxGeometry>
        </mxCell>
        <mxCell id="mXo3GQkAn6UmXGM8vVlt-18" style="edgeStyle=orthogonalEdgeStyle;rounded=0;orthogonalLoop=1;jettySize=auto;html=1;dashed=1;dashPattern=8 8;" parent="1" source="UpYW0VXzlztQtEfswIcR-47" target="UpYW0VXzlztQtEfswIcR-55" edge="1">
          <mxGeometry relative="1" as="geometry">
            <Array as="points">
              <mxPoint x="610" y="340" />
              <mxPoint x="610" y="340" />
            </Array>
          </mxGeometry>
        </mxCell>
        <mxCell id="mXo3GQkAn6UmXGM8vVlt-19" value="Enviar respuesta con &lt;br&gt;entrenadores en formato JSON" style="edgeLabel;html=1;align=center;verticalAlign=middle;resizable=0;points=[];" parent="mXo3GQkAn6UmXGM8vVlt-18" vertex="1" connectable="0">
          <mxGeometry x="-0.0183" y="1" relative="1" as="geometry">
            <mxPoint y="-21" as="offset" />
          </mxGeometry>
        </mxCell>
        <mxCell id="UpYW0VXzlztQtEfswIcR-47" value="" style="html=1;points=[];perimeter=orthogonalPerimeter;rounded=0;shadow=0;comic=0;labelBackgroundColor=none;strokeWidth=1;fontFamily=Verdana;fontSize=12;align=center;" parent="1" vertex="1">
          <mxGeometry x="665" y="230" width="10" height="110" as="geometry" />
        </mxCell>
        <mxCell id="mXo3GQkAn6UmXGM8vVlt-16" style="edgeStyle=orthogonalEdgeStyle;rounded=0;orthogonalLoop=1;jettySize=auto;html=1;dashed=1;dashPattern=8 8;" parent="1" source="UpYW0VXzlztQtEfswIcR-48" target="UpYW0VXzlztQtEfswIcR-47" edge="1">
          <mxGeometry relative="1" as="geometry">
            <Array as="points">
              <mxPoint x="820" y="320" />
              <mxPoint x="820" y="320" />
            </Array>
          </mxGeometry>
        </mxCell>
        <mxCell id="mXo3GQkAn6UmXGM8vVlt-17" value="Encontrar entrenadores" style="edgeLabel;html=1;align=center;verticalAlign=middle;resizable=0;points=[];" parent="mXo3GQkAn6UmXGM8vVlt-16" vertex="1" connectable="0">
          <mxGeometry x="-0.0211" y="3" relative="1" as="geometry">
            <mxPoint y="-13" as="offset" />
          </mxGeometry>
        </mxCell>
        <mxCell id="UpYW0VXzlztQtEfswIcR-48" value="" style="html=1;points=[];perimeter=orthogonalPerimeter;rounded=0;shadow=0;comic=0;labelBackgroundColor=none;strokeWidth=1;fontFamily=Verdana;fontSize=12;align=center;" parent="1" vertex="1">
          <mxGeometry x="865" y="270" width="10" height="50" as="geometry" />
        </mxCell>
        <mxCell id="UpYW0VXzlztQtEfswIcR-49" value="Navegar a &quot;Entrenadores&quot;" style="html=1;verticalAlign=bottom;endArrow=block;entryX=0;entryY=0;labelBackgroundColor=none;fontFamily=Verdana;fontSize=11;edgeStyle=elbowEdgeStyle;elbow=horizontal;" parent="1" target="UpYW0VXzlztQtEfswIcR-55" edge="1">
          <mxGeometry x="-0.0061" relative="1" as="geometry">
            <mxPoint x="295" y="187" as="sourcePoint" />
            <mxPoint as="offset" />
          </mxGeometry>
        </mxCell>
        <mxCell id="mXo3GQkAn6UmXGM8vVlt-9" style="edgeStyle=orthogonalEdgeStyle;rounded=0;orthogonalLoop=1;jettySize=auto;html=1;" parent="1" source="UpYW0VXzlztQtEfswIcR-55" target="UpYW0VXzlztQtEfswIcR-47" edge="1">
          <mxGeometry relative="1" as="geometry">
            <Array as="points">
              <mxPoint x="580" y="230" />
              <mxPoint x="580" y="230" />
            </Array>
          </mxGeometry>
        </mxCell>
        <mxCell id="mXo3GQkAn6UmXGM8vVlt-12" value="GET /trainer" style="edgeLabel;html=1;align=center;verticalAlign=middle;resizable=0;points=[];" parent="mXo3GQkAn6UmXGM8vVlt-9" vertex="1" connectable="0">
          <mxGeometry x="0.1308" y="1" relative="1" as="geometry">
            <mxPoint x="-9" y="-9" as="offset" />
          </mxGeometry>
        </mxCell>
        <mxCell id="mXo3GQkAn6UmXGM8vVlt-20" style="edgeStyle=orthogonalEdgeStyle;rounded=0;orthogonalLoop=1;jettySize=auto;html=1;dashed=1;dashPattern=8 8;" parent="1" source="UpYW0VXzlztQtEfswIcR-55" target="ZZxpTI72Ch4nWyN-9ozh-12" edge="1">
          <mxGeometry relative="1" as="geometry">
            <Array as="points">
              <mxPoint x="400" y="360" />
              <mxPoint x="400" y="360" />
            </Array>
          </mxGeometry>
        </mxCell>
        <mxCell id="mXo3GQkAn6UmXGM8vVlt-21" value="Mostrar entrenadores disponibles" style="edgeLabel;html=1;align=center;verticalAlign=middle;resizable=0;points=[];" parent="mXo3GQkAn6UmXGM8vVlt-20" vertex="1" connectable="0">
          <mxGeometry x="0.2258" y="3" relative="1" as="geometry">
            <mxPoint x="19" y="-23" as="offset" />
          </mxGeometry>
        </mxCell>
        <mxCell id="UpYW0VXzlztQtEfswIcR-55" value="" style="html=1;points=[];perimeter=orthogonalPerimeter;rounded=0;shadow=0;comic=0;labelBackgroundColor=none;strokeWidth=1;fontFamily=Verdana;fontSize=12;align=center;" parent="1" vertex="1">
          <mxGeometry x="480.13" y="187" width="10" height="173" as="geometry" />
        </mxCell>
        <mxCell id="18j1XGoCvIrTiXG_NGVG-17" style="edgeStyle=orthogonalEdgeStyle;rounded=0;orthogonalLoop=1;jettySize=auto;html=1;" parent="1" source="18j1XGoCvIrTiXG_NGVG-21" target="18j1XGoCvIrTiXG_NGVG-24" edge="1">
          <mxGeometry relative="1" as="geometry">
            <Array as="points">
              <mxPoint x="770" y="480" />
              <mxPoint x="770" y="480" />
            </Array>
          </mxGeometry>
        </mxCell>
        <mxCell id="18j1XGoCvIrTiXG_NGVG-18" value="Consultar entrenador" style="edgeLabel;html=1;align=center;verticalAlign=middle;resizable=0;points=[];" parent="18j1XGoCvIrTiXG_NGVG-17" vertex="1" connectable="0">
          <mxGeometry x="-0.0632" relative="1" as="geometry">
            <mxPoint x="6" y="-11" as="offset" />
          </mxGeometry>
        </mxCell>
        <mxCell id="18j1XGoCvIrTiXG_NGVG-19" style="edgeStyle=orthogonalEdgeStyle;rounded=0;orthogonalLoop=1;jettySize=auto;html=1;dashed=1;dashPattern=8 8;" parent="1" source="18j1XGoCvIrTiXG_NGVG-21" target="18j1XGoCvIrTiXG_NGVG-30" edge="1">
          <mxGeometry relative="1" as="geometry">
            <Array as="points">
              <mxPoint x="610" y="550" />
              <mxPoint x="610" y="550" />
            </Array>
          </mxGeometry>
        </mxCell>
        <mxCell id="18j1XGoCvIrTiXG_NGVG-20" value="Enviar respuesta con&lt;br style=&quot;border-color: var(--border-color);&quot;&gt;entrenador en formato JSON" style="edgeLabel;html=1;align=center;verticalAlign=middle;resizable=0;points=[];" parent="18j1XGoCvIrTiXG_NGVG-19" vertex="1" connectable="0">
          <mxGeometry x="-0.0183" y="1" relative="1" as="geometry">
            <mxPoint y="-21" as="offset" />
          </mxGeometry>
        </mxCell>
        <mxCell id="18j1XGoCvIrTiXG_NGVG-21" value="" style="html=1;points=[];perimeter=orthogonalPerimeter;rounded=0;shadow=0;comic=0;labelBackgroundColor=none;strokeWidth=1;fontFamily=Verdana;fontSize=12;align=center;" parent="1" vertex="1">
          <mxGeometry x="665" y="440" width="10" height="110" as="geometry" />
        </mxCell>
        <mxCell id="18j1XGoCvIrTiXG_NGVG-22" style="edgeStyle=orthogonalEdgeStyle;rounded=0;orthogonalLoop=1;jettySize=auto;html=1;dashed=1;dashPattern=8 8;" parent="1" source="18j1XGoCvIrTiXG_NGVG-24" target="18j1XGoCvIrTiXG_NGVG-21" edge="1">
          <mxGeometry relative="1" as="geometry">
            <Array as="points">
              <mxPoint x="820" y="530" />
              <mxPoint x="820" y="530" />
            </Array>
          </mxGeometry>
        </mxCell>
        <mxCell id="18j1XGoCvIrTiXG_NGVG-23" value="Encontrar entrenador" style="edgeLabel;html=1;align=center;verticalAlign=middle;resizable=0;points=[];" parent="18j1XGoCvIrTiXG_NGVG-22" vertex="1" connectable="0">
          <mxGeometry x="-0.0211" y="3" relative="1" as="geometry">
            <mxPoint y="-13" as="offset" />
          </mxGeometry>
        </mxCell>
        <mxCell id="18j1XGoCvIrTiXG_NGVG-24" value="" style="html=1;points=[];perimeter=orthogonalPerimeter;rounded=0;shadow=0;comic=0;labelBackgroundColor=none;strokeWidth=1;fontFamily=Verdana;fontSize=12;align=center;" parent="1" vertex="1">
          <mxGeometry x="865" y="480" width="10" height="50" as="geometry" />
        </mxCell>
        <mxCell id="18j1XGoCvIrTiXG_NGVG-25" value="Seleccionar un entrenador" style="html=1;verticalAlign=bottom;endArrow=block;entryX=0;entryY=0;labelBackgroundColor=none;fontFamily=Verdana;fontSize=11;edgeStyle=elbowEdgeStyle;elbow=vertical;" parent="1" target="18j1XGoCvIrTiXG_NGVG-30" edge="1">
          <mxGeometry x="-0.0061" relative="1" as="geometry">
            <mxPoint x="295" y="397" as="sourcePoint" />
            <mxPoint as="offset" />
          </mxGeometry>
        </mxCell>
        <mxCell id="18j1XGoCvIrTiXG_NGVG-26" style="edgeStyle=orthogonalEdgeStyle;rounded=0;orthogonalLoop=1;jettySize=auto;html=1;" parent="1" source="18j1XGoCvIrTiXG_NGVG-30" target="18j1XGoCvIrTiXG_NGVG-21" edge="1">
          <mxGeometry relative="1" as="geometry">
            <Array as="points">
              <mxPoint x="580" y="440" />
              <mxPoint x="580" y="440" />
            </Array>
          </mxGeometry>
        </mxCell>
        <mxCell id="18j1XGoCvIrTiXG_NGVG-27" value="GET /trainer/:id" style="edgeLabel;html=1;align=center;verticalAlign=middle;resizable=0;points=[];" parent="18j1XGoCvIrTiXG_NGVG-26" vertex="1" connectable="0">
          <mxGeometry x="0.1308" y="1" relative="1" as="geometry">
            <mxPoint x="-9" y="-9" as="offset" />
          </mxGeometry>
        </mxCell>
        <mxCell id="18j1XGoCvIrTiXG_NGVG-28" style="edgeStyle=orthogonalEdgeStyle;rounded=0;orthogonalLoop=1;jettySize=auto;html=1;dashed=1;dashPattern=8 8;" parent="1" source="18j1XGoCvIrTiXG_NGVG-30" edge="1">
          <mxGeometry relative="1" as="geometry">
            <Array as="points">
              <mxPoint x="400" y="570" />
              <mxPoint x="400" y="570" />
            </Array>
            <mxPoint x="295" y="570" as="targetPoint" />
          </mxGeometry>
        </mxCell>
        <mxCell id="18j1XGoCvIrTiXG_NGVG-29" value="Mostrar detalle del entrenador" style="edgeLabel;html=1;align=center;verticalAlign=middle;resizable=0;points=[];" parent="18j1XGoCvIrTiXG_NGVG-28" vertex="1" connectable="0">
          <mxGeometry x="0.2258" y="3" relative="1" as="geometry">
            <mxPoint x="19" y="-23" as="offset" />
          </mxGeometry>
        </mxCell>
        <mxCell id="18j1XGoCvIrTiXG_NGVG-30" value="" style="html=1;points=[];perimeter=orthogonalPerimeter;rounded=0;shadow=0;comic=0;labelBackgroundColor=none;strokeWidth=1;fontFamily=Verdana;fontSize=12;align=center;" parent="1" vertex="1">
          <mxGeometry x="480.13" y="397" width="10" height="173" as="geometry" />
        </mxCell>
        <mxCell id="jENG6Z95OqWd9vkK6bcQ-2" value="" style="edgeStyle=orthogonalEdgeStyle;rounded=0;orthogonalLoop=1;jettySize=auto;html=1;" parent="1" target="18j1XGoCvIrTiXG_NGVG-45" edge="1">
          <mxGeometry relative="1" as="geometry">
            <mxPoint x="375" y="690" as="targetPoint" />
            <Array as="points">
              <mxPoint x="390" y="610" />
              <mxPoint x="390" y="610" />
            </Array>
            <mxPoint x="295" y="610" as="sourcePoint" />
          </mxGeometry>
        </mxCell>
        <mxCell id="jENG6Z95OqWd9vkK6bcQ-4" value="Actualizar datos de usuario" style="edgeLabel;html=1;align=center;verticalAlign=middle;resizable=0;points=[];" parent="jENG6Z95OqWd9vkK6bcQ-2" vertex="1" connectable="0">
          <mxGeometry x="-0.1203" relative="1" as="geometry">
            <mxPoint x="13" y="-10" as="offset" />
          </mxGeometry>
        </mxCell>
        <mxCell id="jENG6Z95OqWd9vkK6bcQ-3" style="edgeStyle=orthogonalEdgeStyle;rounded=0;orthogonalLoop=1;jettySize=auto;html=1;" parent="1" target="18j1XGoCvIrTiXG_NGVG-45" edge="1">
          <mxGeometry relative="1" as="geometry">
            <Array as="points">
              <mxPoint x="390" y="640" />
              <mxPoint x="390" y="640" />
            </Array>
            <mxPoint x="295" y="640" as="sourcePoint" />
          </mxGeometry>
        </mxCell>
        <mxCell id="jENG6Z95OqWd9vkK6bcQ-5" value="Presionar &quot;Guardar Cambios&quot;" style="edgeLabel;html=1;align=center;verticalAlign=middle;resizable=0;points=[];" parent="jENG6Z95OqWd9vkK6bcQ-3" vertex="1" connectable="0">
          <mxGeometry x="-0.0339" y="-1" relative="1" as="geometry">
            <mxPoint y="-15" as="offset" />
          </mxGeometry>
        </mxCell>
        <mxCell id="18j1XGoCvIrTiXG_NGVG-32" style="edgeStyle=orthogonalEdgeStyle;rounded=0;orthogonalLoop=1;jettySize=auto;html=1;" parent="1" source="18j1XGoCvIrTiXG_NGVG-36" target="18j1XGoCvIrTiXG_NGVG-39" edge="1">
          <mxGeometry relative="1" as="geometry">
            <Array as="points">
              <mxPoint x="770" y="690" />
              <mxPoint x="770" y="690" />
            </Array>
          </mxGeometry>
        </mxCell>
        <mxCell id="18j1XGoCvIrTiXG_NGVG-33" value="Actualizar campos &lt;br&gt;del entrenador con :id" style="edgeLabel;html=1;align=center;verticalAlign=middle;resizable=0;points=[];" parent="18j1XGoCvIrTiXG_NGVG-32" vertex="1" connectable="0">
          <mxGeometry x="-0.0632" relative="1" as="geometry">
            <mxPoint x="6" y="-20" as="offset" />
          </mxGeometry>
        </mxCell>
        <mxCell id="18j1XGoCvIrTiXG_NGVG-34" style="edgeStyle=orthogonalEdgeStyle;rounded=0;orthogonalLoop=1;jettySize=auto;html=1;dashed=1;dashPattern=8 8;" parent="1" source="18j1XGoCvIrTiXG_NGVG-36" target="18j1XGoCvIrTiXG_NGVG-45" edge="1">
          <mxGeometry relative="1" as="geometry">
            <Array as="points">
              <mxPoint x="610" y="760" />
              <mxPoint x="610" y="760" />
            </Array>
          </mxGeometry>
        </mxCell>
        <mxCell id="18j1XGoCvIrTiXG_NGVG-35" value="Enviar respuesta con&lt;br style=&quot;border-color: var(--border-color);&quot;&gt;entrenador en&lt;br style=&quot;border-color: var(--border-color);&quot;&gt;formato JSON" style="edgeLabel;html=1;align=center;verticalAlign=middle;resizable=0;points=[];" parent="18j1XGoCvIrTiXG_NGVG-34" vertex="1" connectable="0">
          <mxGeometry x="-0.0183" y="1" relative="1" as="geometry">
            <mxPoint y="-31" as="offset" />
          </mxGeometry>
        </mxCell>
        <mxCell id="18j1XGoCvIrTiXG_NGVG-36" value="" style="html=1;points=[];perimeter=orthogonalPerimeter;rounded=0;shadow=0;comic=0;labelBackgroundColor=none;strokeWidth=1;fontFamily=Verdana;fontSize=12;align=center;" parent="1" vertex="1">
          <mxGeometry x="665" y="650" width="10" height="110" as="geometry" />
        </mxCell>
        <mxCell id="18j1XGoCvIrTiXG_NGVG-37" style="edgeStyle=orthogonalEdgeStyle;rounded=0;orthogonalLoop=1;jettySize=auto;html=1;dashed=1;dashPattern=8 8;" parent="1" source="18j1XGoCvIrTiXG_NGVG-39" target="18j1XGoCvIrTiXG_NGVG-36" edge="1">
          <mxGeometry relative="1" as="geometry">
            <Array as="points">
              <mxPoint x="820" y="740" />
              <mxPoint x="820" y="740" />
            </Array>
          </mxGeometry>
        </mxCell>
        <mxCell id="18j1XGoCvIrTiXG_NGVG-38" value="Retornar entrenador con :id" style="edgeLabel;html=1;align=center;verticalAlign=middle;resizable=0;points=[];" parent="18j1XGoCvIrTiXG_NGVG-37" vertex="1" connectable="0">
          <mxGeometry x="-0.0211" y="3" relative="1" as="geometry">
            <mxPoint y="-13" as="offset" />
          </mxGeometry>
        </mxCell>
        <mxCell id="18j1XGoCvIrTiXG_NGVG-39" value="" style="html=1;points=[];perimeter=orthogonalPerimeter;rounded=0;shadow=0;comic=0;labelBackgroundColor=none;strokeWidth=1;fontFamily=Verdana;fontSize=12;align=center;" parent="1" vertex="1">
          <mxGeometry x="865" y="690" width="10" height="50" as="geometry" />
        </mxCell>
        <mxCell id="18j1XGoCvIrTiXG_NGVG-41" style="edgeStyle=orthogonalEdgeStyle;rounded=0;orthogonalLoop=1;jettySize=auto;html=1;" parent="1" source="18j1XGoCvIrTiXG_NGVG-45" target="18j1XGoCvIrTiXG_NGVG-36" edge="1">
          <mxGeometry relative="1" as="geometry">
            <Array as="points">
              <mxPoint x="580" y="650" />
              <mxPoint x="580" y="650" />
            </Array>
          </mxGeometry>
        </mxCell>
        <mxCell id="18j1XGoCvIrTiXG_NGVG-42" value="POST /trainer/:id" style="edgeLabel;html=1;align=center;verticalAlign=middle;resizable=0;points=[];" parent="18j1XGoCvIrTiXG_NGVG-41" vertex="1" connectable="0">
          <mxGeometry x="0.1308" y="1" relative="1" as="geometry">
            <mxPoint x="-9" y="-9" as="offset" />
          </mxGeometry>
        </mxCell>
        <mxCell id="18j1XGoCvIrTiXG_NGVG-43" style="edgeStyle=orthogonalEdgeStyle;rounded=0;orthogonalLoop=1;jettySize=auto;html=1;dashed=1;dashPattern=8 8;" parent="1" source="18j1XGoCvIrTiXG_NGVG-45" edge="1">
          <mxGeometry relative="1" as="geometry">
            <Array as="points">
              <mxPoint x="400" y="780" />
              <mxPoint x="400" y="780" />
            </Array>
            <mxPoint x="295" y="780" as="targetPoint" />
          </mxGeometry>
        </mxCell>
        <mxCell id="18j1XGoCvIrTiXG_NGVG-44" value="Mostrar confirmación&lt;br&gt;de operación exitosa" style="edgeLabel;html=1;align=center;verticalAlign=middle;resizable=0;points=[];" parent="18j1XGoCvIrTiXG_NGVG-43" vertex="1" connectable="0">
          <mxGeometry x="0.2258" y="3" relative="1" as="geometry">
            <mxPoint x="23" y="-23" as="offset" />
          </mxGeometry>
        </mxCell>
        <mxCell id="18j1XGoCvIrTiXG_NGVG-45" value="" style="html=1;points=[];perimeter=orthogonalPerimeter;rounded=0;shadow=0;comic=0;labelBackgroundColor=none;strokeWidth=1;fontFamily=Verdana;fontSize=12;align=center;" parent="1" vertex="1">
          <mxGeometry x="480.13" y="607" width="10" height="173" as="geometry" />
        </mxCell>
        <mxCell id="18j1XGoCvIrTiXG_NGVG-85" value="" style="ellipse;whiteSpace=wrap;html=1;aspect=fixed;fillColor=#000000;" parent="1" vertex="1">
          <mxGeometry x="1090" y="185" width="20" height="20" as="geometry" />
        </mxCell>
        <mxCell id="coWp2lrXI3cDdnSgMNUa-1" value="" style="edgeStyle=orthogonalEdgeStyle;rounded=0;orthogonalLoop=1;jettySize=auto;html=1;" parent="1" source="18j1XGoCvIrTiXG_NGVG-85" target="18j1XGoCvIrTiXG_NGVG-63" edge="1">
          <mxGeometry relative="1" as="geometry" />
        </mxCell>
        <mxCell id="HAfdZiEjRBDNuq-phJMd-1" value="Administrador" style="swimlane;whiteSpace=wrap;html=1;" parent="1" vertex="1">
          <mxGeometry x="1000" y="120" width="200" height="680" as="geometry" />
        </mxCell>
        <mxCell id="18j1XGoCvIrTiXG_NGVG-63" value="Navegar a &quot;Entrenadores&quot;" style="rounded=1;whiteSpace=wrap;html=1;" parent="HAfdZiEjRBDNuq-phJMd-1" vertex="1">
          <mxGeometry x="40" y="125" width="120" height="60" as="geometry" />
        </mxCell>
        <mxCell id="18j1XGoCvIrTiXG_NGVG-65" value="Seleccionar un entrenador" style="rounded=1;whiteSpace=wrap;html=1;" parent="HAfdZiEjRBDNuq-phJMd-1" vertex="1">
          <mxGeometry x="40" y="225" width="120" height="60" as="geometry" />
        </mxCell>
        <mxCell id="HAfdZiEjRBDNuq-phJMd-10" value="" style="edgeStyle=orthogonalEdgeStyle;rounded=0;orthogonalLoop=1;jettySize=auto;html=1;" parent="HAfdZiEjRBDNuq-phJMd-1" source="18j1XGoCvIrTiXG_NGVG-67" target="jENG6Z95OqWd9vkK6bcQ-6" edge="1">
          <mxGeometry relative="1" as="geometry" />
        </mxCell>
        <mxCell id="18j1XGoCvIrTiXG_NGVG-67" value="Actualizar datos de entrenador" style="rounded=1;whiteSpace=wrap;html=1;" parent="HAfdZiEjRBDNuq-phJMd-1" vertex="1">
          <mxGeometry x="40" y="325" width="120" height="60" as="geometry" />
        </mxCell>
        <mxCell id="jENG6Z95OqWd9vkK6bcQ-6" value="Presionar &quot;Guardar Cambios&quot;" style="rounded=1;whiteSpace=wrap;html=1;" parent="HAfdZiEjRBDNuq-phJMd-1" vertex="1">
          <mxGeometry x="40" y="425" width="120" height="60" as="geometry" />
        </mxCell>
        <mxCell id="HAfdZiEjRBDNuq-phJMd-19" style="edgeStyle=orthogonalEdgeStyle;rounded=0;orthogonalLoop=1;jettySize=auto;html=1;entryX=0.5;entryY=0;entryDx=0;entryDy=0;" parent="HAfdZiEjRBDNuq-phJMd-1" source="HAfdZiEjRBDNuq-phJMd-17" target="18j1XGoCvIrTiXG_NGVG-71" edge="1">
          <mxGeometry relative="1" as="geometry" />
        </mxCell>
        <mxCell id="HAfdZiEjRBDNuq-phJMd-17" value="Mostrar confirmación" style="rounded=1;whiteSpace=wrap;html=1;" parent="HAfdZiEjRBDNuq-phJMd-1" vertex="1">
          <mxGeometry x="40" y="530" width="120" height="60" as="geometry" />
        </mxCell>
        <mxCell id="jENG6Z95OqWd9vkK6bcQ-8" value="" style="group" parent="HAfdZiEjRBDNuq-phJMd-1" vertex="1" connectable="0">
          <mxGeometry x="80" y="620" width="40" height="40" as="geometry" />
        </mxCell>
        <mxCell id="18j1XGoCvIrTiXG_NGVG-71" value="" style="ellipse;whiteSpace=wrap;html=1;aspect=fixed;" parent="jENG6Z95OqWd9vkK6bcQ-8" vertex="1">
          <mxGeometry width="40" height="40" as="geometry" />
        </mxCell>
        <mxCell id="18j1XGoCvIrTiXG_NGVG-72" value="" style="ellipse;whiteSpace=wrap;html=1;aspect=fixed;fillColor=#000000;" parent="jENG6Z95OqWd9vkK6bcQ-8" vertex="1">
          <mxGeometry x="10" y="10" width="20" height="20" as="geometry" />
        </mxCell>
        <mxCell id="HAfdZiEjRBDNuq-phJMd-4" value="App web" style="swimlane;whiteSpace=wrap;html=1;" parent="1" vertex="1">
          <mxGeometry x="1200" y="120" width="200" height="680" as="geometry" />
        </mxCell>
        <mxCell id="HAfdZiEjRBDNuq-phJMd-5" value="Mostrar listado de entrenadores" style="rounded=1;whiteSpace=wrap;html=1;" parent="HAfdZiEjRBDNuq-phJMd-4" vertex="1">
          <mxGeometry x="40" y="125" width="120" height="60" as="geometry" />
        </mxCell>
        <mxCell id="HAfdZiEjRBDNuq-phJMd-6" value="Mostrar campos de perfil de entrenador" style="rounded=1;whiteSpace=wrap;html=1;" parent="HAfdZiEjRBDNuq-phJMd-4" vertex="1">
          <mxGeometry x="40" y="225" width="120" height="60" as="geometry" />
        </mxCell>
        <mxCell id="HAfdZiEjRBDNuq-phJMd-8" value="Guardar Cambios" style="rounded=1;whiteSpace=wrap;html=1;" parent="HAfdZiEjRBDNuq-phJMd-4" vertex="1">
          <mxGeometry x="40" y="425" width="120" height="60" as="geometry" />
        </mxCell>
        <mxCell id="HAfdZiEjRBDNuq-phJMd-9" value="" style="edgeStyle=orthogonalEdgeStyle;rounded=0;orthogonalLoop=1;jettySize=auto;html=1;" parent="1" source="jENG6Z95OqWd9vkK6bcQ-6" target="HAfdZiEjRBDNuq-phJMd-8" edge="1">
          <mxGeometry relative="1" as="geometry" />
        </mxCell>
        <mxCell id="HAfdZiEjRBDNuq-phJMd-11" value="" style="edgeStyle=orthogonalEdgeStyle;rounded=0;orthogonalLoop=1;jettySize=auto;html=1;" parent="1" source="18j1XGoCvIrTiXG_NGVG-63" target="HAfdZiEjRBDNuq-phJMd-5" edge="1">
          <mxGeometry relative="1" as="geometry" />
        </mxCell>
        <mxCell id="HAfdZiEjRBDNuq-phJMd-12" style="edgeStyle=orthogonalEdgeStyle;rounded=0;orthogonalLoop=1;jettySize=auto;html=1;" parent="1" source="HAfdZiEjRBDNuq-phJMd-5" target="18j1XGoCvIrTiXG_NGVG-65" edge="1">
          <mxGeometry relative="1" as="geometry">
            <Array as="points">
              <mxPoint x="1300" y="325" />
              <mxPoint x="1100" y="325" />
            </Array>
          </mxGeometry>
        </mxCell>
        <mxCell id="HAfdZiEjRBDNuq-phJMd-13" value="" style="edgeStyle=orthogonalEdgeStyle;rounded=0;orthogonalLoop=1;jettySize=auto;html=1;" parent="1" source="18j1XGoCvIrTiXG_NGVG-65" target="HAfdZiEjRBDNuq-phJMd-6" edge="1">
          <mxGeometry relative="1" as="geometry" />
        </mxCell>
        <mxCell id="HAfdZiEjRBDNuq-phJMd-14" style="edgeStyle=orthogonalEdgeStyle;rounded=0;orthogonalLoop=1;jettySize=auto;html=1;" parent="1" source="HAfdZiEjRBDNuq-phJMd-6" target="18j1XGoCvIrTiXG_NGVG-67" edge="1">
          <mxGeometry relative="1" as="geometry">
            <Array as="points">
              <mxPoint x="1300" y="425" />
              <mxPoint x="1100" y="425" />
            </Array>
          </mxGeometry>
        </mxCell>
        <mxCell id="HAfdZiEjRBDNuq-phJMd-18" style="edgeStyle=orthogonalEdgeStyle;rounded=0;orthogonalLoop=1;jettySize=auto;html=1;" parent="1" source="HAfdZiEjRBDNuq-phJMd-8" target="HAfdZiEjRBDNuq-phJMd-17" edge="1">
          <mxGeometry relative="1" as="geometry">
            <Array as="points">
              <mxPoint x="1300" y="620" />
              <mxPoint x="1100" y="620" />
            </Array>
          </mxGeometry>
        </mxCell>
      </root>
    </mxGraphModel>
  </diagram>
</mxfile>
